<svg width="41" height="26" viewBox="0 0 41 26" fill="none" xmlns="http://www.w3.org/2000/svg">
<g clip-path="url(#clip0_1_160)">
<rect width="39.9445" height="26" transform="translate(0.772552)" fill="white"/>
<path d="M3.06366 0H38.4263C39.0566 0 39.6294 0.232334 40.0442 0.605413C40.4593 0.979078 40.7171 1.49554 40.7171 2.06233V23.9377C40.7171 24.3652 40.5705 24.7634 40.3202 25.0938C40.2743 25.2006 40.2028 25.3001 40.105 25.3846C40.0396 25.4399 39.9678 25.4853 39.8917 25.5195C39.4935 25.8183 38.9818 26.0003 38.4263 26.0003H3.06366C2.434 26.0003 1.86057 25.7683 1.44513 25.3946C1.03066 25.0212 0.772552 24.5056 0.772552 23.9377V2.06233C0.772552 1.49437 1.03001 0.978493 1.4448 0.605413C1.85959 0.231748 2.4327 0 3.06366 0ZM2.52989 23.0701L14.9229 11.8865L2.52989 2.79093V23.0701ZM16.2879 12.8881L3.51096 24.4181H37.8714L25.661 12.8898L21.6357 15.9772C21.32 16.22 20.8474 16.2338 20.5132 15.9898L16.2879 12.8881ZM26.9974 11.8651L38.9597 23.1593V2.69144L26.9974 11.8651ZM3.65497 1.58186L21.0531 14.3511L37.7043 1.58186H3.65497Z" fill="black"/>
</g>
<defs>
<clipPath id="clip0_1_160">
<rect width="39.9445" height="26" fill="white" transform="translate(0.772552)"/>
</clipPath>
</defs>
</svg>
