<svg width="71" height="78" viewBox="0 0 71 78" fill="none" xmlns="http://www.w3.org/2000/svg">
<path d="M24.7468 1.15154C23.8064 1.60836 22.1867 2.92809 21.1418 4.04478C19.261 6.02436 19.261 6.07512 19.47 9.72974C19.6267 12.0646 20.1492 14.2472 20.8806 15.7192C22.448 18.8663 22.1867 20.7951 20.2014 21.1504C19.1565 21.3534 18.4773 21.9118 17.8503 23.1808C17.3279 24.3482 16.2307 25.3126 14.8723 26.0232C10.3269 28.2566 7.03545 30.1854 5.7293 31.5052C4.42315 32.7741 3.7962 34.8552 2.38556 43.2304C2.17658 44.3471 1.54963 46.0221 0.974925 46.9358C0.0344997 48.4078 -0.0177461 48.9153 0.452467 50.4381C0.818188 51.6055 0.818188 52.6715 0.504713 53.4836C-0.122238 55.1079 1.02717 59.2701 2.80353 61.808C3.84845 63.3308 4.26642 63.5338 6.19951 63.5338C8.86405 63.5338 9.43876 64.1937 9.43876 67.2899C9.43876 69.168 9.69999 69.7264 11.3196 71.1984C13.1482 72.8226 13.2005 72.9749 12.887 75.4113L12.5213 78H28.7175H44.8615L44.13 75.6143C43.1896 72.5688 43.1896 71.1984 44.2345 70.3355C45.0704 69.6756 45.0704 67.0869 44.2345 65.1581C43.8688 64.3967 44.13 64.2952 46.5856 64.2952C48.1529 64.2952 50.713 63.9399 52.2804 63.5338C53.8477 63.1277 56.0943 62.7724 57.2437 62.7724C61.5801 62.7724 64.8194 59.3208 64.6104 54.9049C64.5059 52.57 64.7149 52.0116 67.8496 47.5956C70.253 44.0933 70.9844 42.7228 70.4619 42.469C70.0962 42.266 66.9092 41.9614 63.461 41.8091C55.8853 41.4538 57.3482 40.4387 49.4068 51.8593L43.712 59.9807L48.7799 60.133C51.6012 60.1837 53.8477 60.4883 53.8477 60.7421C53.8477 61.3004 45.5929 61.4527 44.2345 60.9451C42.8761 60.4375 43.2418 59.4224 46.5333 54.6511C48.2574 52.1639 49.6681 49.5752 49.6681 48.9153C49.6681 47.3418 45.1227 34.0431 44.0255 32.4188C43.6076 31.7589 41.6222 30.4392 39.6369 29.4748C37.7038 28.5104 36.0842 27.546 36.0842 27.343C36.0842 27.0892 35.2482 25.9725 34.2555 24.8558C32.4792 22.8254 32.4269 22.7239 33.5763 22.5716C34.2555 22.4701 34.8302 22.0133 34.9347 21.4042C35.2482 19.9322 37.0246 16.1761 37.6515 15.8208C37.965 15.6177 37.8605 14.9579 37.3903 13.9935C36.8678 13.029 36.7111 12.2169 37.0246 11.7093C37.2858 11.2525 37.3381 9.93277 37.0768 8.76532C36.7633 7.09029 36.8678 6.53194 37.6515 5.82133C39.6891 3.99402 37.7038 1.60836 33.7331 1.20229C32.3224 0.99926 30.0759 0.745468 28.7697 0.593193C27.0979 0.39016 25.8962 0.542435 24.7468 1.15154ZM34.778 73.9393C34.778 75.7159 34.7258 75.7159 32.3224 75.8681C30.0236 76.0204 29.8146 75.9189 29.5012 74.7515C28.9265 72.4166 29.5534 71.8582 32.2702 72.0105C34.778 72.1628 34.778 72.1628 34.778 73.9393Z" fill="black"/>
<path d="M30.7029 72.7717C30.4939 72.924 30.3372 73.6346 30.3372 74.2945C30.3372 75.3096 30.5984 75.4619 32.1135 75.4619C34.1511 75.4619 34.7258 74.9036 34.2556 73.4316C33.9421 72.4164 31.4866 71.9596 30.7029 72.7717Z" fill="black"/>
</svg>
