<svg width="53" height="50" viewBox="0 0 53 50" fill="none" xmlns="http://www.w3.org/2000/svg">
<path d="M26.4666 49.8167C41.0837 49.8167 52.9331 39.0494 52.9331 25.7672C52.9331 12.4851 41.0837 1.71777 26.4666 1.71777C11.8495 1.71777 0 12.4851 0 25.7672C0 30.0805 1.2496 34.1286 3.43776 37.6288L0 49.8167L13.8285 46.903C17.584 48.761 21.8895 49.8167 26.4666 49.8167ZM26.4666 46.1169C38.8349 46.1169 48.8614 37.0061 48.8614 25.7672C48.8614 14.5286 38.8349 5.4177 26.4666 5.4177C14.0983 5.4177 4.07179 14.5286 4.07179 25.7672C4.07179 30.1066 5.56648 34.1287 8.11359 37.4316L6.10767 44.2668L13.7625 42.5278C17.3723 44.7914 21.7491 46.1169 26.4666 46.1169Z" fill="#BFC8D0"/>
<path d="M26.4666 49.8167C41.0837 49.8167 52.9331 39.0494 52.9331 25.7672C52.9331 12.4851 41.0837 1.71777 26.4666 1.71777C11.8495 1.71777 0 12.4851 0 25.7672C0 30.0805 1.2496 34.1286 3.43776 37.6288L0 49.8167L13.8285 46.903C17.584 48.761 21.8895 49.8167 26.4666 49.8167ZM26.4666 46.1169C38.8349 46.1169 48.8614 37.0061 48.8614 25.7672C48.8614 14.5286 38.8349 5.4177 26.4666 5.4177C14.0983 5.4177 4.07179 14.5286 4.07179 25.7672C4.07179 30.1066 5.56648 34.1287 8.11359 37.4316L6.10767 44.2668L13.7625 42.5278C17.3723 44.7914 21.7491 46.1169 26.4666 46.1169Z" stroke="white"/>
<path d="M49.1521 24.0494C49.1521 35.4341 38.9953 44.6632 26.4664 44.6632C21.6877 44.6632 17.254 43.3206 13.5974 41.0278L5.84315 42.7892L7.87512 35.8652C5.29494 32.5194 3.78082 28.4451 3.78082 24.0494C3.78082 12.6647 13.9375 3.43555 26.4664 3.43555C38.9953 3.43555 49.1521 12.6647 49.1521 24.0494Z" fill="url(#paint0_linear_249_550)"/>
<path d="M49.1521 24.0494C49.1521 35.4341 38.9953 44.6632 26.4664 44.6632C21.6877 44.6632 17.254 43.3206 13.5974 41.0278L5.84315 42.7892L7.87512 35.8652C5.29494 32.5194 3.78082 28.4451 3.78082 24.0494C3.78082 12.6647 13.9375 3.43555 26.4664 3.43555C38.9953 3.43555 49.1521 12.6647 49.1521 24.0494Z" stroke="white"/>
<path d="M26.4666 48.0989C41.0837 48.0989 52.9331 37.3317 52.9331 24.0495C52.9331 10.7673 41.0837 0 26.4666 0C11.8495 0 0 10.7673 0 24.0495C0 28.3627 1.2496 32.4108 3.43776 35.911L0 48.0989L13.8285 45.1852C17.584 47.0432 21.8895 48.0989 26.4666 48.0989ZM26.4666 44.3991C38.8349 44.3991 48.8614 35.2883 48.8614 24.0495C48.8614 12.8107 38.8349 3.69993 26.4666 3.69993C14.0983 3.69993 4.07179 12.8107 4.07179 24.0495C4.07179 28.3889 5.56648 32.411 8.11359 35.7138L6.10767 42.549L13.7625 40.8101C17.3723 43.0736 21.7491 44.3991 26.4666 44.3991Z" fill="white"/>
<path d="M26.4666 48.0989C41.0837 48.0989 52.9331 37.3317 52.9331 24.0495C52.9331 10.7673 41.0837 0 26.4666 0C11.8495 0 0 10.7673 0 24.0495C0 28.3627 1.2496 32.4108 3.43776 35.911L0 48.0989L13.8285 45.1852C17.584 47.0432 21.8895 48.0989 26.4666 48.0989ZM26.4666 44.3991C38.8349 44.3991 48.8614 35.2883 48.8614 24.0495C48.8614 12.8107 38.8349 3.69993 26.4666 3.69993C14.0983 3.69993 4.07179 12.8107 4.07179 24.0495C4.07179 28.3889 5.56648 32.411 8.11359 35.7138L6.10767 42.549L13.7625 40.8101C17.3723 43.0736 21.7491 44.3991 26.4666 44.3991Z" stroke="white"/>
<path d="M19.8498 12.8836C19.2681 11.8217 18.3989 11.8285 17.5003 11.8356C17.4271 11.8362 17.3536 11.8368 17.28 11.8368C15.5372 11.8368 12.8196 13.7337 12.8196 17.2642C12.8196 20.1575 14.2227 23.3247 18.9507 28.0626C23.5135 32.6351 29.5089 35.0004 34.4861 34.9198C39.4634 34.8394 40.4874 30.9473 40.4874 29.633C40.4874 29.0505 40.0895 28.7599 39.8156 28.6809C39.5385 28.56 39.2232 28.4221 38.8865 28.2749C37.1619 27.5208 34.8748 26.5207 34.2793 26.3041C33.6 26.057 33.2305 26.3648 32.9973 26.559C32.9862 26.5683 32.9754 26.5773 32.9649 26.586C32.6164 26.8877 32.0829 27.5069 31.5969 28.0711C31.1829 28.5516 30.8034 28.9923 30.6018 29.1627C30.1638 29.5332 29.5106 29.3456 29.2388 29.2056C28.2385 28.841 25.5266 27.7448 23.3651 25.8406C21.2233 23.9541 20.6966 23.0589 20.3129 22.4067C20.2177 22.2447 20.1312 22.0978 20.0311 21.9544C19.6282 21.3774 19.9239 21.0235 20.0713 20.8687C20.6473 20.2649 21.4427 19.3325 21.7994 18.8692C22.1496 18.414 21.8829 17.7274 21.7122 17.288C21.7091 17.28 21.706 17.2721 21.703 17.2642C20.9723 15.3798 20.3532 13.8023 19.8498 12.8836Z" fill="white"/>
<path d="M19.8498 12.8836C19.2681 11.8217 18.3989 11.8285 17.5003 11.8356C17.4271 11.8362 17.3536 11.8368 17.28 11.8368C15.5372 11.8368 12.8196 13.7337 12.8196 17.2642C12.8196 20.1575 14.2227 23.3247 18.9507 28.0626C23.5135 32.6351 29.5089 35.0004 34.4861 34.9198C39.4634 34.8394 40.4874 30.9473 40.4874 29.633C40.4874 29.0505 40.0895 28.7599 39.8156 28.6809C39.5385 28.56 39.2232 28.4221 38.8865 28.2749C37.1619 27.5208 34.8748 26.5207 34.2793 26.3041C33.6 26.057 33.2305 26.3648 32.9973 26.559C32.9862 26.5683 32.9754 26.5773 32.9649 26.586C32.6164 26.8877 32.0829 27.5069 31.5969 28.0711C31.1829 28.5516 30.8034 28.9923 30.6018 29.1627C30.1638 29.5332 29.5106 29.3456 29.2388 29.2056C28.2385 28.841 25.5266 27.7448 23.3651 25.8406C21.2233 23.9541 20.6966 23.0589 20.3129 22.4067C20.2177 22.2447 20.1312 22.0978 20.0311 21.9544C19.6282 21.3774 19.9239 21.0235 20.0713 20.8687C20.6473 20.2649 21.4427 19.3325 21.7994 18.8692C22.1496 18.414 21.8829 17.7274 21.7122 17.288C21.7091 17.28 21.706 17.2721 21.703 17.2642C20.9723 15.3798 20.3532 13.8023 19.8498 12.8836Z" stroke="white"/>
<defs>
<linearGradient id="paint0_linear_249_550" x1="46.3164" y1="8.589" x2="7.58728" y2="48.3691" gradientUnits="userSpaceOnUse">
<stop stop-color="#5BD066"/>
<stop offset="1" stop-color="#27B43E"/>
</linearGradient>
</defs>
</svg>
