<svg width="23" height="19" viewBox="0 0 23 19" fill="none" xmlns="http://www.w3.org/2000/svg">
<path d="M5.73213 0.82335C5.27034 -0.0100179 4.58032 -0.00464985 3.86704 0.000899224C3.80886 0.00135183 3.75052 0.00180563 3.69215 0.00180563C2.3086 0.00180563 0.151184 1.49053 0.151184 4.26126C0.151184 6.53193 1.26505 9.0175 5.01837 12.7358C8.6406 16.3243 13.4001 18.1806 17.3513 18.1173C21.3025 18.0542 22.1155 14.9997 22.1155 13.9683C22.1155 13.5111 21.7995 13.283 21.5821 13.221C21.3621 13.1262 21.1119 13.018 20.8446 12.9024C19.4755 12.3106 17.6599 11.5257 17.1871 11.3557C16.6478 11.1618 16.3545 11.4034 16.1694 11.5558C16.1606 11.5631 16.152 11.5701 16.1436 11.5769C15.867 11.8138 15.4435 12.2997 15.0577 12.7425C14.729 13.1196 14.4277 13.4654 14.2677 13.5992C13.92 13.89 13.4015 13.7427 13.1856 13.6329C12.3916 13.3467 10.2388 12.4864 8.52279 10.992C6.82249 9.51148 6.40441 8.80891 6.0998 8.29703C6.02418 8.16996 5.95556 8.05464 5.87605 7.94209C5.55624 7.48925 5.79096 7.21153 5.90802 7.09006C6.3653 6.61619 6.99667 5.88442 7.27986 5.52083C7.55783 5.16362 7.34613 4.62476 7.21066 4.27994C7.20819 4.27365 7.20574 4.26742 7.20332 4.26126C6.62328 2.78235 6.13178 1.54435 5.73213 0.82335Z" fill="black"/>
<path d="M5.73213 0.82335C5.27034 -0.0100179 4.58032 -0.00464985 3.86704 0.000899224C3.80886 0.00135183 3.75052 0.00180563 3.69215 0.00180563C2.3086 0.00180563 0.151184 1.49053 0.151184 4.26126C0.151184 6.53193 1.26505 9.0175 5.01837 12.7358C8.6406 16.3243 13.4001 18.1806 17.3513 18.1173C21.3025 18.0542 22.1155 14.9997 22.1155 13.9683C22.1155 13.5111 21.7995 13.283 21.5821 13.221C21.3621 13.1262 21.1119 13.018 20.8446 12.9024C19.4755 12.3106 17.6599 11.5257 17.1871 11.3557C16.6478 11.1618 16.3545 11.4034 16.1694 11.5558C16.1606 11.5631 16.152 11.5701 16.1436 11.5769C15.867 11.8138 15.4435 12.2997 15.0577 12.7425C14.729 13.1196 14.4277 13.4654 14.2677 13.5992C13.92 13.89 13.4015 13.7427 13.1856 13.6329C12.3916 13.3467 10.2388 12.4864 8.52279 10.992C6.82249 9.51148 6.40441 8.80891 6.0998 8.29703C6.02418 8.16996 5.95556 8.05464 5.87605 7.94209C5.55624 7.48925 5.79096 7.21153 5.90802 7.09006C6.3653 6.61619 6.99667 5.88442 7.27986 5.52083C7.55783 5.16362 7.34613 4.62476 7.21066 4.27994C7.20819 4.27365 7.20574 4.26742 7.20332 4.26126C6.62328 2.78235 6.13178 1.54435 5.73213 0.82335Z" stroke="black"/>
</svg>
