<svg width="86" height="66" viewBox="0 0 86 66" fill="none" xmlns="http://www.w3.org/2000/svg">
<path d="M42.8442 14.182C41.6171 14.7645 40.4014 15.5718 39.2736 16.6788C33.6208 22.2227 28.4821 27.2612 28.4821 27.2612L28.4842 27.2645C28.4536 27.2947 28.4227 27.3194 28.3919 27.3506C26.9287 28.7864 26.8707 31.0753 28.2219 32.5771C28.2755 32.6374 28.3327 32.6968 28.3919 32.7537C29.9109 34.2453 32.3775 34.2488 33.9023 32.7537L39.8381 26.9336C40.8622 27.3015 41.869 27.5161 42.8351 27.6235C44.1512 27.7665 45.3873 27.7129 46.4867 27.5609C49.1666 27.1885 48.8861 27.297 50.4405 26.7961C51.9913 26.2972 53.7339 25.2752 53.7339 25.2752L54.7889 26.3085C54.9051 26.4192 57.5943 29.0602 58.9661 30.4032C59.209 30.6424 59.4153 30.8392 59.5535 30.9802C59.712 31.1423 59.8887 31.2597 59.9982 31.4163L66.8428 38.1276C68.8157 35.9571 71.0691 32.7246 70.7909 29.0134L53.6882 12.2462C53.6882 12.2462 47.7683 11.8315 42.8442 14.182Z" fill="black"/>
<path d="M43.7974 55.3675C42.2828 53.8803 39.8242 53.8803 38.3087 55.3675L37.1821 56.4721C38.6942 54.9874 38.693 52.5821 37.1786 51.096C35.663 49.6123 33.2078 49.6123 31.6922 51.0972C33.2078 49.6123 33.2078 47.2049 31.6922 45.7177C30.1778 44.2303 27.7214 44.2328 26.2058 45.7177C27.7214 44.2328 27.7214 41.8242 26.2058 40.3369C24.6912 38.8522 22.235 38.8522 20.7192 40.3392L17.3266 43.6645C15.811 45.1517 15.811 47.558 17.3266 49.0452C18.841 50.5302 21.2965 50.5302 22.8119 49.0452C21.2963 50.5302 21.2963 52.9386 22.8119 54.4246C24.3286 55.9095 26.7839 55.9095 28.2994 54.4246C26.7839 55.9095 26.7839 58.3171 28.2994 59.8043C29.815 61.2892 32.2703 61.2892 33.786 59.8043L34.9139 58.6972C33.4018 60.1844 33.4028 62.5896 34.9172 64.0757C36.4328 65.5605 38.888 65.5605 40.4038 64.0757L43.7975 60.7479C45.3118 59.2598 45.3118 56.8524 43.7974 55.3675Z" fill="black"/>
<path d="M84.7331 20.2356L64.7614 0.650791C63.8741 -0.21693 62.4396 -0.21693 61.5546 0.650791L55.149 6.93149C54.264 7.79921 54.264 9.2059 55.149 10.0748L75.123 29.6584C76.0068 30.5282 77.4438 30.5282 78.3276 29.6584L84.7331 23.3764C85.6204 22.5111 85.6204 21.1044 84.7331 20.2356ZM79.0403 24.5786C78.0868 25.5112 76.545 25.5112 75.5951 24.5786C74.6441 23.6448 74.6441 22.1331 75.5951 21.2005C76.545 20.2679 78.0868 20.2679 79.0403 21.2005C79.9914 22.1331 79.9902 23.6448 79.0403 24.5786Z" fill="black"/>
<path d="M30.7479 7.48617L24.3433 1.20548C23.4585 0.337757 22.0227 0.337757 21.1378 1.20548L1.16373 20.7901C0.278758 21.6555 0.278758 23.0645 1.16373 23.9311L7.56942 30.2141C8.45322 31.0808 9.89119 31.0808 10.7738 30.2141L30.7479 10.6293C31.634 9.76156 31.634 8.35487 30.7479 7.48617ZM10.3028 25.1331C9.35162 26.0645 7.80886 26.0645 6.85756 25.1331C5.9066 24.1995 5.9066 22.6876 6.85756 21.755C7.80869 20.8226 9.35162 20.8226 10.3028 21.755C11.2539 22.6876 11.2539 24.1994 10.3028 25.1331Z" fill="black"/>
<path d="M66.417 42.108L65.1787 40.8915L53.1554 29.1025L52.3458 29.4547L51.4643 29.7667L51.4006 29.7857C51.2454 29.8339 49.7948 30.2688 46.9348 30.6656C45.4226 30.8726 43.9242 30.8983 42.4737 30.7362C41.9001 30.6736 41.3298 30.5817 40.7664 30.4611L36.1638 34.9719C33.3983 37.6835 28.895 37.6835 26.1295 34.9719C26.0325 34.8758 25.939 34.7784 25.8524 34.6823L25.8228 34.6498C24.0769 32.7087 23.6333 30.0519 24.4544 27.7462L26.2242 25.0459L26.2209 25.0426L37.0125 14.4625C37.4514 14.0331 37.9122 13.6328 38.3911 13.2548C35.0281 12.6074 32.2067 12.7986 32.2067 12.7986L15.1073 29.5677C14.877 32.6549 17.0393 36.0385 18.5775 38.0144C21.3454 35.419 25.7473 35.4527 28.4671 38.1207C29.4797 39.1125 30.1173 40.3346 30.3862 41.616C31.6954 41.8821 32.9408 42.5061 33.9535 43.499C34.9661 44.4931 35.6037 45.7152 35.8728 46.9977C37.1808 47.2616 38.4284 47.8854 39.44 48.8785C40.1162 49.5415 40.626 50.3065 40.9692 51.125C42.8098 51.1027 44.6573 51.7779 46.0578 53.15C48.8187 55.8548 48.8175 60.2604 46.0578 62.9642L44.9287 64.0733L45.4944 64.6281C47.0112 66.1152 49.4663 66.1152 50.9821 64.6281C52.4977 63.143 52.4977 60.7346 50.9821 59.2484L52.111 60.3589C53.6277 61.8438 56.0818 61.8438 57.5974 60.3589C59.1129 58.8717 59.1141 56.4643 57.5974 54.9771C59.1141 56.4643 61.5682 56.4643 63.0838 54.9771C64.5983 53.4934 64.6017 51.0848 63.0838 49.5975C64.6017 51.0848 67.0558 51.0848 68.5703 49.5975C70.0871 48.1127 70.0871 45.704 68.5703 44.2191L66.417 42.108Z" fill="black"/>
</svg>
