<svg width="67" height="82" viewBox="0 0 67 82" fill="none" xmlns="http://www.w3.org/2000/svg">
<path d="M3.69355 3.15385V0C1.92982 0 0.5 1.41204 0.5 3.15385H3.69355ZM63.3065 78.8462V82C65.0701 82 66.5 80.5879 66.5 78.8462H63.3065ZM3.69355 78.8462H0.5C0.5 80.5879 1.92982 82 3.69355 82V78.8462ZM42.0161 3.15385L44.2742 0.923741C43.6755 0.332289 42.8631 0 42.0161 0V3.15385ZM63.3065 24.1795H66.5C66.5 23.343 66.1636 22.5408 65.5645 21.9494L63.3065 24.1795ZM48.5331 43.23C49.7799 41.9983 49.7799 40.0017 48.5331 38.77C47.2859 37.5383 45.2638 37.5383 44.0166 38.77L48.5331 43.23ZM28.3908 58.6615L26.1327 60.8919C27.3799 62.1236 29.4016 62.1236 30.6488 60.8919L28.3908 58.6615ZM22.9841 48.8623C21.737 47.6306 19.7149 47.6306 18.4678 48.8623C17.2206 50.094 17.2207 52.091 18.4678 53.3227L22.9841 48.8623ZM63.3065 75.6923H3.69355V82H63.3065V75.6923ZM6.8871 78.8462V3.15385H0.5V78.8462H6.8871ZM3.69355 6.30769H42.0161V0H3.69355V6.30769ZM60.1129 24.1795V78.8462H66.5V24.1795H60.1129ZM39.7581 5.38395L61.0484 26.4096L65.5645 21.9494L44.2742 0.923741L39.7581 5.38395ZM34.5645 3.15385V19.9744H40.9516V3.15385H34.5645ZM46.2742 31.5385H63.3065V25.2308H46.2742V31.5385ZM34.5645 19.9744C34.5645 26.361 39.807 31.5385 46.2742 31.5385V25.2308C43.3344 25.2308 40.9516 22.8774 40.9516 19.9744H34.5645ZM44.0166 38.77L26.1327 56.4316L30.6488 60.8919L48.5331 43.23L44.0166 38.77ZM18.4678 53.3227L26.1327 60.8919L30.6488 56.4316L22.9841 48.8623L18.4678 53.3227Z" fill="black"/>
</svg>
