<svg width="77" height="75" viewBox="0 0 77 75" fill="none" xmlns="http://www.w3.org/2000/svg">
<path fill-rule="evenodd" clip-rule="evenodd" d="M7.61566 34.6559C6.372 35.1471 4.98697 35.2097 3.69991 34.833C2.8457 34.5619 2.09172 34.0625 1.52819 33.3945C0.964664 32.7265 0.615465 31.9183 0.522381 31.0665C0.452247 30.2865 0.547344 29.5011 0.802044 28.7566C1.05674 28.0122 1.46588 27.3239 2.00523 26.7324C2.06759 26.6579 2.13866 26.5903 2.21706 26.531L37.5166 0.324801C37.7414 0.126976 38.0331 0.0120969 38.3392 0.000902638C38.6453 -0.0102916 38.9454 0.0829368 39.1856 0.263757L74.5685 26.415C74.6259 26.4554 74.6777 26.5026 74.7226 26.5554C75.4293 27.2039 75.9518 28.012 76.2414 28.9043C76.531 29.7967 76.5782 30.7443 76.3787 31.6587C76.1849 32.4184 75.7968 33.1208 75.249 33.7036C74.7054 34.2872 74.0169 34.7321 73.2461 34.9978C72.5633 35.2224 71.8401 35.315 71.1192 35.2699C70.3982 35.2248 69.694 35.043 69.048 34.7353C69.048 44.0099 69.048 53.2804 69.048 62.5469H55.4648C55.5097 62.3394 55.5483 62.1257 55.5868 61.9365C55.6876 61.3481 55.7562 60.7552 55.7922 60.1601H65.5816V33.3008C65.5816 32.6903 41.3103 14.4626 38.6207 12.4787C35.7769 14.5358 11.0628 32.6232 11.0628 33.3984V60.1357H20.3065C20.3458 60.7247 20.4165 61.3115 20.5184 61.8937L20.5569 62.1318C20.5569 62.2722 20.6082 62.4065 20.6403 62.5469H7.60924C7.60924 53.256 7.60924 43.959 7.60924 34.6559H7.61566ZM39.3782 24.8889V32.733H46.7924C46.7847 30.7868 46.0251 28.9111 44.6581 27.4625C43.2911 26.014 41.4121 25.0938 39.3782 24.8767V24.8889ZM39.3782 34.4056V40.04H46.7924V34.3934L39.3782 34.4056ZM37.6321 40.0339V34.3934H30.2179V40.0278H37.6321V40.0339ZM37.6321 32.7453V24.8767C35.6015 25.0934 33.725 26.011 32.3585 27.4557C30.9919 28.9004 30.2303 30.7716 30.2179 32.7147L37.6321 32.7453ZM38.5051 23.198C41.1589 23.2012 43.7035 24.2035 45.5824 25.9857C47.4613 27.7679 48.5218 30.185 48.532 32.7086V41.6821H28.4718V32.7086C28.4837 30.1844 29.5456 27.7673 31.4256 25.9853C33.3055 24.2032 35.8507 23.2012 38.5051 23.198ZM38.3061 46.9441C39.9949 46.9719 41.6614 47.3163 43.21 47.9576C44.7586 48.5989 46.1589 49.5244 47.3306 50.6813C48.5024 51.8381 49.4226 53.2034 50.0386 54.6991C50.6545 56.1947 50.954 57.7912 50.92 59.397C50.8942 60.5803 50.691 61.754 50.3166 62.8827C49.986 63.8635 49.5266 64.8008 48.9493 65.6724L53.8279 70.9283C53.9312 71.0472 53.9834 71.1989 53.9739 71.353C53.9644 71.507 53.8938 71.6519 53.7765 71.7585L50.047 74.8656C49.9215 74.9613 49.7629 75.0088 49.6024 74.9986C49.4419 74.9885 49.2913 74.9214 49.1804 74.8106L44.52 69.744C43.5845 70.2674 42.5839 70.6776 41.5414 70.9649C39.3 71.5681 36.9281 71.58 34.6801 70.9993C32.432 70.4186 30.3925 69.2672 28.78 67.6685C27.0073 65.9262 25.8202 63.7214 25.3701 61.3351C24.9199 58.9489 25.227 56.4892 26.2522 54.2696C27.2775 52.0499 28.9744 50.1707 31.1268 48.8716C33.2793 47.5724 35.7897 46.912 38.3382 46.9746L38.3061 46.9441ZM45.4572 52.438C44.5193 51.5129 43.4008 50.7706 42.1641 50.2527C39.6709 49.2294 36.853 49.1867 34.3268 50.1339C31.8006 51.0811 29.7716 52.9411 28.6837 55.3071C27.6112 57.6737 27.5605 60.3465 28.5424 62.7484C29.0275 63.9279 29.7467 65.0077 30.6608 65.9287C31.5972 66.854 32.7162 67.5945 33.9539 68.108C35.1873 68.623 36.5163 68.899 37.8632 68.9199C39.2123 68.9459 40.5535 68.7188 41.8103 68.2516C43.067 67.7845 44.2146 67.0864 45.1876 66.1973C46.1569 65.3063 46.9352 64.2449 47.4792 63.0719C48.5639 60.6979 48.6193 58.0127 47.6333 55.6001C47.1402 54.4055 46.4052 53.3145 45.47 52.3892L45.4572 52.438ZM58.4947 2.08897L69.1186 2.50407V16.1474L58.4947 9.4814V2.08897Z" fill="black"/>
</svg>
