<svg width="68" height="64" viewBox="0 0 68 64" fill="none" xmlns="http://www.w3.org/2000/svg">
<path d="M33.9853 0C15.4931 0 0.5 14.326 0.5 32C0.5 49.674 15.491 64 33.9853 64C52.4797 64 67.4707 49.674 67.4707 32C67.4707 14.326 52.4797 0 33.9853 0ZM33.9853 60.064C17.8287 60.064 4.68567 47.44 4.68567 32C4.68567 16.56 17.8287 4 33.9853 4C50.142 4 63.285 16.56 63.285 32C63.285 47.44 50.142 60.064 33.9853 60.064ZM36.0782 31.188V12C36.0782 10.896 35.1406 10 33.9853 10C32.8301 10 31.8925 10.896 31.8925 12V32C31.8925 32.566 32.1395 33.074 32.5371 33.438C32.5727 33.478 32.5999 33.52 32.6376 33.556L42.995 43.456C43.8112 44.236 45.136 44.236 45.9543 43.456C46.7726 42.676 46.7705 41.408 45.9543 40.626L36.0782 31.188Z" fill="black"/>
</svg>
