<svg width="54" height="50" viewBox="0 0 54 50" fill="none" xmlns="http://www.w3.org/2000/svg">
<path d="M26.938 49.9241C41.5551 49.9241 53.4046 39.1568 53.4046 25.8747C53.4046 12.5925 41.5551 1.8252 26.938 1.8252C12.3209 1.8252 0.471436 12.5925 0.471436 25.8747C0.471436 30.1879 1.72104 34.236 3.9092 37.7362L0.471436 49.9241L14.2999 47.0104C18.0554 48.8684 22.361 49.9241 26.938 49.9241ZM26.938 46.2243C39.3064 46.2243 49.3329 37.1135 49.3329 25.8747C49.3329 14.636 39.3064 5.52512 26.938 5.52512C14.5697 5.52512 4.54322 14.636 4.54322 25.8747C4.54322 30.2141 6.03792 34.2362 8.58502 37.539L6.5791 44.3742L14.2339 42.6353C17.8437 44.8988 22.2205 46.2243 26.938 46.2243Z" fill="#BFC8D0"/>
<path d="M26.938 49.9241C41.5551 49.9241 53.4046 39.1568 53.4046 25.8747C53.4046 12.5925 41.5551 1.8252 26.938 1.8252C12.3209 1.8252 0.471436 12.5925 0.471436 25.8747C0.471436 30.1879 1.72104 34.236 3.9092 37.7362L0.471436 49.9241L14.2999 47.0104C18.0554 48.8684 22.361 49.9241 26.938 49.9241ZM26.938 46.2243C39.3064 46.2243 49.3329 37.1135 49.3329 25.8747C49.3329 14.636 39.3064 5.52512 26.938 5.52512C14.5697 5.52512 4.54322 14.636 4.54322 25.8747C4.54322 30.2141 6.03792 34.2362 8.58502 37.539L6.5791 44.3742L14.2339 42.6353C17.8437 44.8988 22.2205 46.2243 26.938 46.2243Z" stroke="white"/>
<path d="M49.6235 24.1568C49.6235 35.5415 39.4668 44.7706 26.9379 44.7706C22.1592 44.7706 17.7254 43.428 14.0688 41.1352L6.31459 42.8967L8.34656 35.9727C5.76637 32.6269 4.25226 28.5525 4.25226 24.1568C4.25226 12.7721 14.409 3.54297 26.9379 3.54297C39.4668 3.54297 49.6235 12.7721 49.6235 24.1568Z" fill="url(#paint0_linear_249_550)"/>
<path d="M49.6235 24.1568C49.6235 35.5415 39.4668 44.7706 26.9379 44.7706C22.1592 44.7706 17.7254 43.428 14.0688 41.1352L6.31459 42.8967L8.34656 35.9727C5.76637 32.6269 4.25226 28.5525 4.25226 24.1568C4.25226 12.7721 14.409 3.54297 26.9379 3.54297C39.4668 3.54297 49.6235 12.7721 49.6235 24.1568Z" stroke="white"/>
<path d="M26.938 48.2064C41.5551 48.2064 53.4046 37.4391 53.4046 24.1569C53.4046 10.8747 41.5551 0.107422 26.938 0.107422C12.3209 0.107422 0.471436 10.8747 0.471436 24.1569C0.471436 28.4702 1.72104 32.5182 3.9092 36.0184L0.471436 48.2064L14.2999 45.2926C18.0554 47.1506 22.361 48.2064 26.938 48.2064ZM26.938 44.5065C39.3064 44.5065 49.3329 35.3957 49.3329 24.1569C49.3329 12.9181 39.3064 3.80735 26.938 3.80735C14.5697 3.80735 4.54322 12.9181 4.54322 24.1569C4.54322 28.4963 6.03792 32.5184 8.58502 35.8212L6.5791 42.6564L14.2339 40.9175C17.8437 43.1811 22.2205 44.5065 26.938 44.5065Z" fill="white"/>
<path d="M26.938 48.2064C41.5551 48.2064 53.4046 37.4391 53.4046 24.1569C53.4046 10.8747 41.5551 0.107422 26.938 0.107422C12.3209 0.107422 0.471436 10.8747 0.471436 24.1569C0.471436 28.4702 1.72104 32.5182 3.9092 36.0184L0.471436 48.2064L14.2999 45.2926C18.0554 47.1506 22.361 48.2064 26.938 48.2064ZM26.938 44.5065C39.3064 44.5065 49.3329 35.3957 49.3329 24.1569C49.3329 12.9181 39.3064 3.80735 26.938 3.80735C14.5697 3.80735 4.54322 12.9181 4.54322 24.1569C4.54322 28.4963 6.03792 32.5184 8.58502 35.8212L6.5791 42.6564L14.2339 40.9175C17.8437 43.1811 22.2205 44.5065 26.938 44.5065Z" stroke="white"/>
<path d="M20.3212 12.991C19.7395 11.9291 18.8703 11.936 17.9718 11.943C17.8985 11.9436 17.825 11.9442 17.7515 11.9442C16.0087 11.9442 13.291 13.8411 13.291 17.3716C13.291 20.265 14.6941 23.4321 19.4221 28.17C23.9849 32.7425 29.9804 35.1078 34.9576 35.0272C39.9348 34.9468 40.9589 31.0548 40.9589 29.7405C40.9589 29.1579 40.5609 28.8673 40.287 28.7883C40.0099 28.6674 39.6946 28.5296 39.3579 28.3823C37.6333 27.6282 35.3463 26.6281 34.7508 26.4115C34.0714 26.1644 33.7019 26.4722 33.4688 26.6664C33.4577 26.6757 33.4468 26.6847 33.4363 26.6934C33.0878 26.9952 32.5544 27.6144 32.0684 28.1785C31.6544 28.6591 31.2748 29.0997 31.0732 29.2701C30.6352 29.6407 29.9821 29.4531 29.7102 29.3131C28.71 28.9484 25.9981 27.8522 23.8365 25.948C21.6947 24.0615 21.1681 23.1663 20.7843 22.5141C20.6891 22.3522 20.6027 22.2052 20.5025 22.0618C20.0996 21.4848 20.3953 21.1309 20.5428 20.9761C21.1188 20.3723 21.9141 19.4399 22.2708 18.9766C22.621 18.5214 22.3543 17.8348 22.1837 17.3955C22.1806 17.3874 22.1775 17.3795 22.1744 17.3716C21.4438 15.4872 20.8246 13.9097 20.3212 12.991Z" fill="white"/>
<path d="M20.3212 12.991C19.7395 11.9291 18.8703 11.936 17.9718 11.943C17.8985 11.9436 17.825 11.9442 17.7515 11.9442C16.0087 11.9442 13.291 13.8411 13.291 17.3716C13.291 20.265 14.6941 23.4321 19.4221 28.17C23.9849 32.7425 29.9804 35.1078 34.9576 35.0272C39.9348 34.9468 40.9589 31.0548 40.9589 29.7405C40.9589 29.1579 40.5609 28.8673 40.287 28.7883C40.0099 28.6674 39.6946 28.5296 39.3579 28.3823C37.6333 27.6282 35.3463 26.6281 34.7508 26.4115C34.0714 26.1644 33.7019 26.4722 33.4688 26.6664C33.4577 26.6757 33.4468 26.6847 33.4363 26.6934C33.0878 26.9952 32.5544 27.6144 32.0684 28.1785C31.6544 28.6591 31.2748 29.0997 31.0732 29.2701C30.6352 29.6407 29.9821 29.4531 29.7102 29.3131C28.71 28.9484 25.9981 27.8522 23.8365 25.948C21.6947 24.0615 21.1681 23.1663 20.7843 22.5141C20.6891 22.3522 20.6027 22.2052 20.5025 22.0618C20.0996 21.4848 20.3953 21.1309 20.5428 20.9761C21.1188 20.3723 21.9141 19.4399 22.2708 18.9766C22.621 18.5214 22.3543 17.8348 22.1837 17.3955C22.1806 17.3874 22.1775 17.3795 22.1744 17.3716C21.4438 15.4872 20.8246 13.9097 20.3212 12.991Z" stroke="white"/>
<defs>
<linearGradient id="paint0_linear_249_550" x1="46.7878" y1="8.69643" x2="8.05872" y2="48.4765" gradientUnits="userSpaceOnUse">
<stop stop-color="#5BD066"/>
<stop offset="1" stop-color="#27B43E"/>
</linearGradient>
</defs>
</svg>
